<svg xmlns="http://www.w3.org/2000/svg" width="250" height="293.042" viewBox="0 0 250 293.042">
  <g id="Grupo_877613" data-name="Grupo 877613" transform="translate(6627.667 10076.521)">
    <g id="Grupo_871042" data-name="Grupo 871042" transform="translate(-6912.667 -11352.521)">
      <path id="Sustracción_4" data-name="Sustracción 4" d="M208.888,250H0V0H6.258C6.211,12.693,6.4,23.038,6.4,23.141H47.534L51.93,0H248.1V204.544H215.276L208.888,250Z" transform="translate(285 1276)" fill="#eaeff3"/>
      <path id="Trazado_213850" data-name="Trazado 213850" d="M11.972,1.311H147.336V14.246H-4Z" transform="translate(387.664 1511.286)" fill="#636363" opacity="0.5"/>
    </g>
    <g id="Grupo_871048" data-name="Grupo 871048" transform="translate(3490.063 -16034.093) rotate(-90)">
      <g id="Grupo_154243" data-name="Grupo 154243" transform="translate(-6223.667 -9978.375) rotate(180)">
        <path id="Trazado_213857" data-name="Trazado 213857" d="M15.822,0,12.184,3.637,22.9,14.356,12.184,25.074l3.637,3.637L30.177,14.356Z" transform="translate(-3.231)" fill="#03386e"/>
        <path id="Trazado_213858" data-name="Trazado 213858" d="M0,10.556,5.633,16.19,0,21.823,3.637,25.46l9.272-9.27L3.637,6.92Z" transform="translate(0 -1.835)" fill="#03386e"/>
      </g>
      <path id="Trazado_213861" data-name="Trazado 213861" d="M-7593.79-9873.73h23.885" transform="translate(1362.333 -119)" fill="none" stroke="#15386a" stroke-width="2"/>
    </g>
  </g>
</svg>
