<svg xmlns="http://www.w3.org/2000/svg" width="250" height="250" viewBox="0 0 250 250">
  <g id="Grupo_877612" data-name="Grupo 877612" transform="translate(6627.667 10326.521)">
    <g id="Grupo_877611" data-name="Grupo 877611">
      <g id="Grupo_877610" data-name="Grupo 877610" transform="translate(-6627.667 -10326.521)">
        <g id="Grupo_877609" data-name="Grupo 877609">
          <g id="Grupo_871041" data-name="Grupo 871041">
            <path id="Sustracción_4" data-name="Sustracción 4" d="M208.888,206.958H0V0H6.258C6.211,10.508,6.4,19.072,6.4,19.157H47.534L51.93,0H248.1V169.328H215.276l-6.387,37.629Z" transform="translate(0 0)" fill="#e1fbff"/>
            <path id="Trazado_213850" data-name="Trazado 213850" d="M11.973,1.311H147.345V14.246H-4Z" transform="translate(102.655 192.244)" fill="#3ae3fe" opacity="0.5"/>
          </g>
          <g id="Grupo_871047" data-name="Grupo 871047" transform="translate(110.645 250) rotate(-90)">
            <g id="Grupo_154243" data-name="Grupo 154243" transform="translate(26.946 28.711) rotate(180)">
              <path id="Trazado_213857" data-name="Trazado 213857" d="M3.637,0,0,3.637,10.718,14.355,0,25.074l3.637,3.637L17.993,14.355Z" transform="translate(8.954)" fill="#03386e"/>
              <path id="Trazado_213858" data-name="Trazado 213858" d="M0,3.637,5.633,9.27,0,14.9,3.637,18.54l9.272-9.27L3.637,0Z" transform="translate(0 5.085)" fill="#03386e"/>
            </g>
            <path id="Trazado_213861" data-name="Trazado 213861" d="M0,0H23.885" transform="translate(19.157 14.355)" fill="none" stroke="#15386a" stroke-width="2"/>
          </g>
        </g>
      </g>
    </g>
  </g>
</svg>
