<svg xmlns="http://www.w3.org/2000/svg" width="1030" height="145.51" viewBox="0 0 1030 145.51">
  <g id="Grupo_877612" data-name="Grupo 877612" transform="translate(-285 -1547)">
    <g id="Grupo_871044" data-name="Grupo 871044" transform="translate(0 271)">
      <path id="Sustracción_4" data-name="Sustracción 4" d="M865.61,102.468H0V0H25.93a47.765,47.765,0,0,0,.608,9.485H196.974L215.191,0H1028.1V83.837H892.08l-26.469,18.631Z" transform="translate(285 1276)" fill="#e1fbff"/>
      <path id="Trazado_213850" data-name="Trazado 213850" d="M11.983,1.311H147.439v13.4H-4Z" transform="translate(1167.561 1363.754)" fill="#3ae3fe" opacity="0.5"/>
    </g>
    <g id="Grupo_871050" data-name="Grupo 871050" transform="translate(10792.73 -4558.104) rotate(-90)">
      <g id="Grupo_154243" data-name="Grupo 154243" transform="translate(-6223.667 -9978.375) rotate(180)">
        <path id="Trazado_213857" data-name="Trazado 213857" d="M15.822,0,12.184,3.637,22.9,14.356,12.184,25.074l3.637,3.637L30.177,14.356Z" transform="translate(-3.231)" fill="#03386e"/>
        <path id="Trazado_213858" data-name="Trazado 213858" d="M0,10.556,5.633,16.19,0,21.823,3.637,25.46l9.272-9.27L3.637,6.92Z" transform="translate(0 -1.835)" fill="#03386e"/>
      </g>
      <path id="Trazado_213861" data-name="Trazado 213861" d="M-7593.79-9873.73h23.885" transform="translate(1362.333 -119)" fill="none" stroke="#15386a" stroke-width="2"/>
    </g>
  </g>
</svg>
